<?xml version="1.0" encoding="UTF-8"?>
<svg width="60px" height="60px" viewBox="0 0 60 60" version="1.1" xmlns="http://www.w3.org/2000/svg" xmlns:xlink="http://www.w3.org/1999/xlink">
    <title>1E2484C6-70E7-422F-BBEA-B41DB037DC88</title>
    <defs>
        <polygon id="path-1" points="2.93178506e-16 0 59.7269995 0 59.7269995 60 2.93178506e-16 60"></polygon>
    </defs>
    <g id="Page-1" stroke="none" stroke-width="1" fill="none" fill-rule="evenodd">
        <g id="Desktop-HD-Copy-23" transform="translate(-690.000000, -15.000000)">
            <g id="nav" transform="translate(40.000000, 0.000000)">
                <g id="LTV-3d" transform="translate(650.136500, 15.000000)">
                    <g id="Group-3">
                        <mask id="mask-2" fill="white">
                            <use xlink:href="#path-1"></use>
                        </mask>
                        <g id="Clip-2"></g>
                        <path d="M59.0087334,18.6259688 C58.6520716,17.6815823 57.6842487,15.8060129 57.3582852,15.1600275 C56.6183892,13.6932741 55.3954071,12.3686243 54.0869317,11.616185 C52.512404,10.7110791 50.7343761,10.2520895 48.8020313,10.2520895 C46.1806243,10.2520895 43.153042,11.0778087 39.5459874,12.7766151 C37.5421781,13.7201764 35.8547598,14.4901105 34.3358523,15.1077083 C34.2731352,15.0091765 34.202166,14.9146058 34.1259153,14.8230059 C34.4140835,13.9160846 34.5433136,12.9540383 34.6197294,11.9457795 C34.8856166,8.43907205 32.574989,4.3129514 30.6574982,2.41246022 C29.1245619,0.893057554 27.1796737,0 25.0773327,0 C24.2859427,0 23.4876209,0.122958396 22.7044832,0.365409245 C19.1751646,1.45883122 15.049209,4.57223682 14.474853,13.0626378 C14.0237855,12.7886634 13.5608348,12.4173125 13.1280873,11.9769729 C13.0978841,11.8421313 13.0688362,11.7096003 13.0407785,11.5808654 C12.9739354,11.2737169 12.9107232,10.9835681 12.8392588,10.7077782 C12.6367488,9.92794143 11.6142961,4.3129514 8.20430495,4.89489945 C7.55798942,5.0051494 6.90045083,5.09625414 6.32972582,5.47750769 C3.28167797,7.51333562 2.26533193,11.9989239 4.06432053,15.4767485 C4.30660634,15.9451457 5.36239809,18.2615498 5.7147688,18.9426898 C7.04948631,21.5231657 10.343781,23.4018709 14.2989153,23.9722659 C14.1299093,26.7942023 13.9168365,29.7582423 13.7060742,31.7108877 C13.2677152,31.6712769 12.8296862,31.6513065 12.3949581,31.6513065 C8.30547743,31.6513065 4.62299727,33.449965 2.13643192,36.4602176 C-3.07469342,42.7683959 2.70534144,49.5406802 4.14205665,50.6831205 C5.62564459,51.862861 7.52778621,52.4864003 9.64283566,52.4864003 C13.9737769,52.4864003 18.2601561,49.9749132 21.0413265,45.938907 C22.2725609,46.8794975 23.7249554,48.1183239 25.2334651,49.4050134 C29.301655,52.8747508 34.3645701,57.1929836 39.0619109,59.1195519 C40.4659472,59.6953933 41.9610883,60.000066 43.3857552,60.000066 L43.3865805,60.000066 C47.1418454,60.000066 50.2275235,57.9436075 51.6401421,54.499122 C52.1227332,53.3226824 52.2217601,52.0732931 51.9256697,50.8824947 C51.6975777,49.9726026 51.1530948,49.2513567 50.4402662,48.8273565 C50.4420817,48.6111478 50.7299199,47.2246062 50.7299199,45.9042476 C50.7299199,43.5110976 49.9046958,40.9529028 47.4849736,38.968899 C47.6493582,38.7054874 47.8134128,38.4338236 47.9769722,38.151597 C49.6510219,35.2644678 51.0327772,31.8264191 52.0492883,29.1538482 C52.8264843,27.1110884 52.9515883,25.2406354 52.4369785,23.7436788 C53.0862649,24.1615723 53.6150685,24.6327753 54.0611847,25.077406 C54.6794426,25.6933533 55.4794149,26.0326855 56.3137165,26.0328505 L56.3138815,26.0328505 C57.5555137,26.0328505 58.682935,25.2932847 59.2563007,24.1031464 C60.0485158,22.4579796 59.7553962,20.6030408 59.0087334,18.6259688" id="Fill-1" fill="#211717" mask="url(#mask-2)"></path>
                    </g>
                    <path d="M6.50295687,40.0139463 C6.46334611,37.9281098 10.7330558,36.1518974 13.4904597,37.1428265 C11.7520425,41.7399851 6.55494599,42.7545156 6.50295687,40.0139463 M25.1206734,6.5360887 C26.7001524,6.27795859 27.5413859,8.46150164 26.8336737,10.237549 C26.1013698,12.056178 24.7542739,13.3791773 22.2579709,14.3062341 C22.2932905,10.2727036 22.9231016,6.84323712 25.1206734,6.5360887 M46.5601614,47.1796975 C45.130048,48.2011599 43.488017,48.4485621 40.9567245,47.4105952 C32.9416526,44.1230673 25.9818773,38.6987041 20.6005908,35.6917524 C21.3500593,31.0754486 21.871766,24.8169488 22.1924481,17.4701434 C28.8741229,15.660757 30.855321,11.8546582 30.9903276,8.40258064 C31.1456348,4.4307769 27.4818047,0.958893936 23.2904914,2.25730158 C18.8187668,3.64268785 16.293746,7.96504681 16.3904623,15.5463809 C14.4374869,15.7710069 12.456949,14.2588662 11.2691214,12.8818972 C9.84676505,11.2330994 9.607285,9.03206161 9.27174887,7.73943053 C9.04860827,6.88004212 8.16198746,6.63544569 7.42968357,7.12447351 C5.3329541,8.52487886 4.4283434,11.8696773 5.82346732,14.5666748 C7.21859123,17.2638374 11.8063423,19.0623308 16.5553421,18.6479033 C16.3954137,22.6003968 15.873872,31.7273757 15.3825336,33.9642282 L14.695452,33.8425901 C10.4145192,33.0602777 6.24070064,34.4806534 3.68663195,37.6927559 C1.48757469,40.458412 1.19643562,43.6568157 3.72426218,45.6670617 C7.5608942,48.7175852 15.1767227,46.6741652 18.7814667,39.6378091 C23.0777486,42.2300032 31.1672557,50.9519621 38.1630107,53.8211013 C42.029846,55.4073471 46.4269702,54.5002608 48.1573002,50.2818801 C48.5177581,49.4030164 48.524855,48.5845591 48.3541987,47.8983027 C48.1361745,47.0288465 47.3499009,46.6193703 46.5601614,47.1796975" id="Fill-4" fill="#FFFFFF"></path>
                    <path d="M46.0534408,42.9863541 C46.1006436,43.1608065 46.2415919,43.3024149 46.4157142,43.350608 C46.8116567,43.4603628 47.1744252,43.0995748 47.066651,42.7028071 C47.0194481,42.5283547 46.8784999,42.3870763 46.7043776,42.3388832 C46.3086001,42.2291284 45.9461616,42.5897514 46.0534408,42.9863541" id="Fill-6" fill="#FFFFFF"></path>
                    <path d="M44.3033744,42.8471058 C44.3022161,43.2628537 43.963049,43.6002053 43.546971,43.5992172 C43.130893,43.5980597 42.7933763,43.2583975 42.7945287,42.8428146 C42.795687,42.4267366 43.1351842,42.0890549 43.5512622,42.0903714 C43.9673402,42.0915306 44.3045268,42.4310278 44.3033744,42.8471058 M42.1090943,42.8408341 C42.1067899,43.6346997 42.7507948,44.2826657 43.5449905,44.2849825 C44.3390211,44.2872869 44.9869871,43.6429519 44.9891389,42.8490863 C44.9914433,42.0547256 44.3472734,41.4067596 43.5532427,41.4046078 C42.758882,41.4023034 42.1114111,42.0464733 42.1090943,42.8408341" id="Fill-8" fill="#FFFFFF"></path>
                    <path d="M43.5952466,39.3392454 C41.6533292,39.3338131 40.069229,40.901904 40.0637675,42.8344138 C40.058171,44.7675839 41.6333588,46.3445872 43.5752762,46.3502139 C44.7632689,46.3536647 45.8618072,45.7644546 46.5076276,44.7835932 C46.5756261,44.6886924 46.5977421,44.5624332 46.5667137,44.4462416 C46.5371707,44.3369819 46.4643859,44.2468674 46.3656891,44.197354 L46.2041102,44.1042687 C46.0159591,43.9991352 45.7751587,44.0512893 45.643783,44.2255767 L45.6347056,44.2382851 C45.1739004,44.9247066 44.4052866,45.3331925 43.578082,45.3308819 C42.2029285,45.3269208 41.0872255,44.208247 41.0911865,42.8372196 C41.0949826,41.4666874 42.2169573,40.3546153 43.5922758,40.3587414 C44.4107331,40.360887 45.1778615,40.7718486 45.6429578,41.4549692 C45.7677317,41.6429552 46.0068816,41.6857018 46.2102169,41.5924515 L46.3630484,41.5089388 C46.4533279,41.447047 46.5373357,41.3704662 46.567704,41.2603813 C46.5997227,41.1441898 46.5784319,41.0179305 46.5168701,40.931447 C45.8703896,39.9377121 44.7781229,39.3427255 43.5952466,39.3392454" id="Fill-10" fill="#FFFFFF"></path>
                    <path d="M45.8974239,19.2339279 C42.9800916,19.753489 42.3007671,24.2839695 45.1005875,24.8860531 C43.8629163,29.1940531 41.6731016,33.486869 40.1604657,35.2204999 C39.4260163,36.0623935 39.6978451,28.5165441 41.0464264,22.2217344 C41.3887293,20.6229452 36.3500758,21.0806145 35.9561138,23.3258843 C35.6413734,25.1910559 34.9988539,28.6574924 34.8813419,31.9022737 C34.8425564,33.2883201 34.2749672,40.3515785 39.0934509,39.1469163 C43.2527456,38.1071339 46.5021481,30.3615802 48.5478788,24.9837596 C50.0928634,20.9223365 48.2796809,18.8094326 45.8974239,19.2339279" id="Fill-12" fill="#FFFFFF"></path>
                    <path d="M53.0996665,13.3332453 C50.170451,11.6491279 46.3212755,11.7748921 40.3897295,14.5682757 C37.2421596,16.0507084 34.8485145,17.1140922 32.6638162,17.8440855 C32.6880777,17.665672 32.7537656,16.7440617 32.7648236,16.6666557 C32.9967116,15.0241296 28.355321,15.1764659 27.8156244,17.4626669 C27.7999451,17.5402379 27.7098307,18.5882726 27.6477738,18.9858656 C27.1194653,19.1870552 25.255449,19.4704372 24.290597,19.5159895 C23.2496593,19.5651729 23.0804883,22.5054465 24.5393195,22.5934154 C25.196528,22.6331912 26.7898708,22.4653406 27.1641925,22.3136644 C26.6231755,26.0747059 25.8436688,32.2774205 25.7847478,34.4007222 C25.71906,36.7613584 26.7614831,37.8899349 28.4624351,38.1244636 C29.9034414,38.3230125 31.525502,37.6496296 32.3776284,36.6454969 C32.9920903,35.9214453 32.5723813,35.6019185 31.6522564,35.5462984 C30.3117623,35.4655915 30.708035,33.8382495 30.8838077,32.0280378 C31.0953952,29.9476478 31.8197769,24.4117142 32.2132438,21.3920541 C37.0858622,19.8406327 42.3646559,16.8988737 46.6294142,17.0373463 C50.5944511,17.1662464 52.8063819,19.2095013 53.8088642,20.2085176 C54.4753152,20.8728231 55.4164008,20.618654 55.8214208,19.7777506 C56.9808607,17.3702418 54.9521297,14.3982796 53.0996665,13.3332453" id="Fill-14" fill="#FFFFFF"></path>
                </g>
            </g>
        </g>
    </g>
</svg>